<?xml version="1.0" encoding="utf-8"?>
<!-- Generator: Adobe Illustrator 22.1.0, SVG Export Plug-In . SVG Version: 6.00 Build 0)  -->
<svg version="1.1" id="Layer_1" xmlns="http://www.w3.org/2000/svg" xmlns:xlink="http://www.w3.org/1999/xlink" x="0px" y="0px"
	 width="126px" height="140px" viewBox="0 0 126 140" style="enable-background:new 0 0 126 140;" xml:space="preserve">
<style type="text/css">
	.st0{fill:#010101;}
	.st1{fill:#C9E4E8;}
	.st2{fill:#8BB7C6;}
	.st3{fill:#CCCCCC;}
	.st4{fill:#DD2931;}
	.st5{fill:#8F594D;}
	.st6{fill:#AD7261;}
	.st7{fill:#C1917E;}
	.st8{fill:#FFFFFF;}
	.st9{fill:#E5E4E4;}
	.st10{fill:#34302F;}
	.st11{fill:#B3B1B2;}
</style>
<g>
	<g>
		<path class="st0" d="M123.7,95.9c0,3.1-2.5,5.6-5.6,5.6H47c-3.1,0-5.6-2.5-5.6-5.6V39.1c0-3.1,2.5-5.6,5.6-5.6h71.1
			c3.1,0,5.6,2.5,5.6,5.6L123.7,95.9L123.7,95.9z"/>
		<path class="st1" d="M121,94.1c0,2.9-2.3,5.2-5.2,5.2H49.3c-2.9,0-5.2-2.3-5.2-5.2V41c0-2.9,2.3-5.2,5.2-5.2h66.4
			c2.9,0,5.2,2.3,5.2,5.2V94.1z"/>
		<path class="st2" d="M112.2,41.7L112.2,41.7l-59.3,0v0h0v51.6h0v0h59.3v0h0L112.2,41.7L112.2,41.7z M53.4,42.3h7.8v7.9h-7.8V42.3z
			 M53.4,50.8h7.8v7.9h-7.8V50.8z M53.4,59.3h7.8v7.9h-7.8V59.3z M53.4,67.8h7.8v7.9h-7.8V67.8z M53.4,76.3h7.8v7.9h-7.8V76.3z
			 M53.4,84.8h7.8v7.9h-7.8V84.8z M69.6,92.7h-7.8v-7.9h7.8V92.7z M69.6,84.2h-7.8v-7.9h7.8V84.2z M69.6,75.7h-7.8v-7.9h7.8V75.7z
			 M69.6,67.2h-7.8v-7.9h7.8V67.2z M69.6,58.7h-7.8v-7.9h7.8V58.7z M69.6,50.2h-7.8v-7.9h7.8V50.2z M78,92.7h-7.8v-7.9H78
			C78,84.8,78,92.7,78,92.7z M78,84.2h-7.8v-7.9H78C78,76.3,78,84.2,78,84.2z M78,75.7h-7.8v-7.9H78C78,67.8,78,75.7,78,75.7z
			 M78,67.2h-7.8v-7.9H78C78,59.3,78,67.2,78,67.2z M78,58.7h-7.8v-7.9H78C78,50.8,78,58.7,78,58.7z M78,50.2h-7.8v-7.9H78
			C78,42.3,78,50.2,78,50.2z M86.4,92.7h-7.8v-7.9h7.8V92.7z M86.4,84.2h-7.8v-7.9h7.8V84.2z M86.4,75.7h-7.8v-7.9h7.8V75.7z
			 M86.4,67.2h-7.8v-7.9h7.8V67.2z M86.4,58.7h-7.8v-7.9h7.8V58.7z M86.4,50.2h-7.8v-7.9h7.8V50.2z M94.8,92.7H87v-7.9h7.8V92.7z
			 M94.8,84.2H87v-7.9h7.8V84.2z M94.8,75.7H87v-7.9h7.8V75.7z M94.8,67.2H87v-7.9h7.8V67.2z M94.8,58.7H87v-7.9h7.8V58.7z
			 M94.8,50.2H87v-7.9h7.8V50.2z M103.2,92.7h-7.8v-7.9h7.8V92.7z M103.2,84.2h-7.8v-7.9h7.8V84.2z M103.2,75.7h-7.8v-7.9h7.8V75.7z
			 M103.2,67.2h-7.8v-7.9h7.8V67.2z M103.2,58.7h-7.8v-7.9h7.8V58.7z M103.2,50.2h-7.8v-7.9h7.8V50.2z M111.6,92.7h-7.8v-7.9h7.8
			V92.7z M111.6,84.2h-7.8v-7.9h7.8V84.2z M111.6,75.7h-7.8v-7.9h7.8V75.7z M111.6,67.2h-7.8v-7.9h7.8V67.2z M111.6,58.7h-7.8v-7.9
			h7.8V58.7z M111.6,50.2h-7.8v-7.9h7.8V50.2z"/>
		<path class="st0" d="M103.3,51.9l-8.6-4.5l-9.1,12l-7.4-1.8l-8.7,10.3l-8.1-2.9L53.1,74v3.7c2-2.1,8.5-9.2,8.5-9.2l8.2,2.7
			l8.7-10.5l8.3,2l9-12.1l7.8,4.4l8.4-8.1v-3.6L103.3,51.9z"/>
	</g>
	<g>
		<path class="st3" d="M76.1,95c-0.6-1.3-23.6-11.3-23.6-11.3H29.7c0,0-23,10-23.6,11.3c-0.6,1.3-2.8,19.5-2.8,19.5h37.8h37.8
			C78.9,114.5,76.7,96.3,76.1,95z"/>
		<path class="st4" d="M40.6,96.6c-2.4,2.5-2.8,4.9-3.2,7.7c-0.3,1.9-0.7,7-0.9,10.2h9.3c-0.2-3.1-0.6-8.3-0.9-10.2
			c-0.4-2.8-0.8-5.2-3.2-7.7c2.1-2,3.9-6.6,3.9-6.6h-8.8C36.7,90,38.5,94.6,40.6,96.6z"/>
		<path class="st5" d="M26.8,52.3c0,0-4.5-2.2-3.9,3.4c0.6,5.6,2.1,8.2,4.3,7.1L26.8,52.3z"/>
		<path class="st5" d="M55.5,52.3c0,0,4.5-2.2,3.9,3.4c-0.6,5.6-2.1,8.2-4.3,7.1L55.5,52.3z"/>
		<path class="st6" d="M50.3,71.7H31.9c0,3.6,0.1,9.6-1.1,10.5c4.6,4.1,10.4,7.8,10.4,7.8s5.8-3.7,10.4-7.8
			C50.3,81.3,50.3,75.4,50.3,71.7z"/>
		<path class="st5" d="M44.2,87.9c2.1-1.5,4.9-3.6,7.3-5.8c-1.2-0.9-1.2-6.8-1.1-10.5H31.9c0,1.2,0,2.6,0,3.9L44.2,87.9z"/>
		<path class="st7" d="M41.1,32.6c-10,0-16.2,5.5-16,13c0.2,7.1,0.7,14.6,1.3,18.7c0.4,2.8,5.6,12.5,9.5,14c2.9,1.1,4.4,1,5.2,1
			c0,0,0,0,0.1,0c0.8,0,2.1,0.1,5.2-1c3.9-1.5,9.1-11.2,9.5-14c0.6-4.1,1.1-11.6,1.3-18.7C57.4,38.1,51.2,32.6,41.1,32.6z"/>
		<path class="st8" d="M25.9,85.3l7.1,12l8.1-7.3c0,0-5.8-3.7-10.4-7.8L25.9,85.3z"/>
		<path class="st9" d="M56.3,85.3l-7.1,12L41.1,90c0,0,5.8-3.7,10.4-7.8L56.3,85.3z"/>
		<path class="st10" d="M57,33.4c0.7-1.9-1.9-4.7-4.6-3.6c0.4-1.6-3.3-4.1-5.8-2.3c-1.3-2.1-4.6-1.5-5.6-0.4
			c-0.9-1.2-4.2-1.7-5.6,0.4c-2.4-1.8-6.2,0.7-5.8,2.3c-2.7-1.1-5.3,1.8-4.6,3.6c-2.1-0.1-1.2,18.2,0.3,21.5
			c0.2-0.5,0.5-6.6,0.8-9.8c0.2-2.4,1.6-4.5,5.5-3.4c3.9,1.1,9.3,1.3,9.3,1.3s5.4-0.1,9.3-1.3c3.9-1.1,5.2,0.9,5.5,3.4
			c0.3,3.2,0.6,9.3,0.8,9.8C58.2,51.7,59.1,33.3,57,33.4z"/>
		<g>
			<path class="st11" d="M76.1,95l-3.3,19.5h6.1C78.9,114.5,76.7,96.3,76.1,95z"/>
			<path class="st9" d="M6.2,95l3.3,19.5H3.3C3.3,114.5,5.6,96.3,6.2,95z"/>
		</g>
		<path class="st10" d="M41.1,63.5c-7.2,0.8-13.1,6-9.9,5.4c3.1-0.6,8-1.2,9.9-1.9c1.9,0.6,6.8,1.3,9.9,1.9
			C54.2,69.5,48.3,64.3,41.1,63.5z"/>
	</g>
</g>
</svg>
